<?xml version="1.0" encoding="utf-8"?>
<!-- Generator: Adobe Illustrator 19.0.0, SVG Export Plug-In . SVG Version: 6.00 Build 0)  -->
<svg version="1.1" id="Layer_1" xmlns="http://www.w3.org/2000/svg" xmlns:xlink="http://www.w3.org/1999/xlink" x="0px" y="0px"
	 viewBox="-331 260.6 296.2 41.4" style="enable-background:new -331 260.6 296.2 41.4;" xml:space="preserve">
<style type="text/css">
	.st0{fill:none;}
	.st1{enable-background:new    ;}
</style>
<rect id="XMLID_1_" x="-640.5" y="457" class="st0" width="345.4" height="52"/>
<text id="XMLID_2_" transform="matrix(1 0 0 1 -640.5133 499.2553)" style="font-family:'AquaGrotesque'; font-size:48px;">JASON NOLFI</text>
<g id="XMLID_4_">
	<path id="XMLID_5_" d="M-314.7,263.1v23.4c0,2.8-0.2,4.9-0.6,6.3c-0.4,1.6-1.1,2.9-2,4c-1.8,2.1-4.2,3.2-7.3,3.2
		c-2.3,0-4.4-0.6-6.4-1.8l2.7-4.7c1.3,0.9,2.6,1.3,3.7,1.3c1.6,0,2.8-0.6,3.4-1.9c0.7-1.2,1-3.4,1-6.5v-23.3H-314.7z"/>
	<path id="XMLID_7_" d="M-289.7,296.3h-17.6l-1.1,2.9h-5.1l15.4-38.4l14.8,38.5h-5.1L-289.7,296.3z M-291.1,292l-7.1-19l-7.4,19
		H-291.1z"/>
	<path id="XMLID_10_" d="M-260.3,268.5l-4.4,2.6c-0.8-1.5-1.6-2.4-2.4-2.8c-0.8-0.5-1.8-0.8-3-0.8c-1.5,0-2.8,0.4-3.8,1.3
		c-1,0.8-1.5,1.9-1.5,3.2c0,1.8,1.3,3.2,3.9,4.3l3.6,1.5c2.9,1.2,5.1,2.6,6.4,4.3c1.3,1.7,2,3.8,2,6.3c0,3.3-1.1,6.1-3.3,8.2
		c-2.2,2.2-5,3.3-8.3,3.3c-3.1,0-5.7-0.9-7.8-2.8c-2-1.9-3.3-4.5-3.8-7.9l5.5-1.2c0.2,2.1,0.7,3.6,1.3,4.4c1.1,1.6,2.8,2.3,4.9,2.3
		c1.7,0,3.1-0.6,4.2-1.7s1.7-2.6,1.7-4.3c0-0.7-0.1-1.3-0.3-1.9c-0.2-0.6-0.5-1.1-0.9-1.6s-0.9-1-1.6-1.4s-1.4-0.8-2.3-1.2l-3.5-1.5
		c-5-2.1-7.4-5.2-7.4-9.2c0-2.7,1-5,3.1-6.8s4.7-2.8,7.8-2.8C-265.9,262.4-262.6,264.4-260.3,268.5z"/>
	<path id="XMLID_12_" d="M-257.5,281c0-2.5,4.6-12.1,5.6-13.1c3.7-3.7,8.2-5.5,13.4-5.5s9.6,1.8,13.3,5.5s5.6,8.1,5.6,13.3
		c0,5.2-1.9,9.6-5.6,13.2s-8.2,5.5-13.5,5.5c-4.7,0-8.9-1.6-12.6-4.9C-255.5,291.5-257.5,286.8-257.5,281z M-252,281.1
		c0,4,1.3,7.3,4,9.9s5.8,3.9,9.3,3.9c3.8,0,7-1.3,9.6-3.9c2.6-2.7,3.9-5.9,3.9-9.7c0-3.9-1.3-7.1-3.9-9.7c-2.6-2.6-5.7-3.9-9.5-3.9
		s-6.9,1.3-9.5,3.9C-250.7,274.1-252,277.3-252,281.1z"/>
	<path id="XMLID_15_" d="M-214.9,299.3v-38.7l26.4,27.6v-25.1h5.5v38.4l-26.4-27.5v25.3L-214.9,299.3L-214.9,299.3z"/>
	<path id="XMLID_18_" d="M-162.5,299.3v-38.7l26.4,27.6v-25.1h5.5v38.4L-157,274v25.3L-162.5,299.3L-162.5,299.3z"/>
	<path id="XMLID_20_" d="M-127.5,281c0-5.1,1.9-9.5,5.6-13.1c3.7-3.7,8.2-5.5,13.4-5.5s9.6,1.8,13.3,5.5c3.7,3.7,5.6,8.1,5.6,13.3
		c0,5.2-1.9,9.6-5.6,13.2s-8.2,5.5-13.5,5.5c-4.7,0-8.9-1.6-12.6-4.9C-125.4,291.5-127.5,286.8-127.5,281z M-122,281.1
		c0,4,1.3,7.3,4,9.9s5.8,3.9,9.3,3.9c3.8,0,7-1.3,9.6-3.9c2.6-2.7,3.9-5.9,3.9-9.7c0-3.9-1.3-7.1-3.9-9.7s-5.7-3.9-9.5-3.9
		s-6.9,1.3-9.5,3.9C-120.7,274.1-122,277.3-122,281.1z"/>
	<path id="XMLID_23_" d="M-80.1,263.1v31h12.6v5.2h-18.1v-36.2H-80.1z"/>
	<path id="XMLID_25_" d="M-46.4,268.2H-59v8.7h12.2v5.1H-59v17.3h-5.5v-36.2h18.1V268.2z"/>
	<path id="XMLID_27_" d="M-35.6,263.1v36.2h-5.5v-36.2H-35.6z"/>
</g>
</svg>
